<mxfile host="cd2d5e00-fb71-4d41-8a03-eb78cc1c2231" modified="2020-09-20T00:47:04.002Z" agent="5.0 (Windows NT 10.0; Win64; x64) AppleWebKit/537.36 (KHTML, like Gecko) Code/1.49.1 Chrome/83.0.4103.122 Electron/9.2.1 Safari/537.36" etag="JnVmZvEkjcb4rkjugJWI" version="13.1.3">
    <diagram id="6hGFLwfOUW9BJ-s0fimq" name="Page-1">
        <mxGraphModel dx="1544" dy="792" grid="0" gridSize="10" guides="1" tooltips="1" connect="1" arrows="1" fold="1" page="0" pageScale="1" pageWidth="1500" pageHeight="1200" background="#333333" math="0" shadow="0">
            <root>
                <mxCell id="0"/>
                <mxCell id="1" parent="0"/>
                <mxCell id="3" value="" style="rounded=0;whiteSpace=wrap;html=1;rotation=90;fillColor=#d0cee2;strokeColor=#56517e;" vertex="1" parent="1">
                    <mxGeometry x="-177" y="286.5" width="200" height="120" as="geometry"/>
                </mxCell>
                <mxCell id="59" style="edgeStyle=orthogonalEdgeStyle;rounded=0;orthogonalLoop=1;jettySize=auto;html=1;exitX=1;exitY=0.5;exitDx=0;exitDy=0;entryX=0;entryY=0.5;entryDx=0;entryDy=0;startSize=15;endSize=13;strokeColor=#009900;gradientColor=#b3b3b3;fillColor=#f5f5f5;" edge="1" parent="1" source="4" target="45">
                    <mxGeometry relative="1" as="geometry"/>
                </mxCell>
                <mxCell id="4" value="" style="rounded=0;whiteSpace=wrap;html=1;fillColor=#fad7ac;strokeColor=#b46504;" vertex="1" parent="1">
                    <mxGeometry x="-127" y="266.5" width="100" height="40" as="geometry"/>
                </mxCell>
                <mxCell id="5" value="" style="rounded=0;whiteSpace=wrap;html=1;fillColor=#fad7ac;strokeColor=#b46504;" vertex="1" parent="1">
                    <mxGeometry x="-127" y="316.5" width="100" height="60" as="geometry"/>
                </mxCell>
                <mxCell id="6" value="" style="rounded=0;whiteSpace=wrap;html=1;fillColor=#fad7ac;strokeColor=#b46504;" vertex="1" parent="1">
                    <mxGeometry x="-127" y="386.5" width="100" height="40" as="geometry"/>
                </mxCell>
                <mxCell id="7" value="" style="rounded=0;whiteSpace=wrap;html=1;fillColor=#0050ef;strokeColor=#001DBC;fontColor=#ffffff;" vertex="1" parent="1">
                    <mxGeometry x="-137" y="226.5" width="120" height="20" as="geometry"/>
                </mxCell>
                <mxCell id="10" value="&lt;font style=&quot;font-size: 17px&quot;&gt;Title&lt;/font&gt;" style="text;strokeColor=none;fillColor=none;html=1;fontSize=24;fontStyle=1;verticalAlign=middle;align=center;" vertex="1" parent="1">
                    <mxGeometry x="-125" y="226.5" width="96" height="20" as="geometry"/>
                </mxCell>
                <mxCell id="16" value="" style="rounded=0;whiteSpace=wrap;html=1;dashed=1;fillColor=none;" vertex="1" parent="1">
                    <mxGeometry x="-160" y="166.5" width="500.5" height="443.5" as="geometry"/>
                </mxCell>
                <mxCell id="17" value="&lt;font style=&quot;font-size: 31px&quot;&gt;DashBoard&lt;/font&gt;" style="text;strokeColor=none;fillColor=none;html=1;fontSize=24;fontStyle=1;verticalAlign=middle;align=center;dashed=1;" vertex="1" parent="1">
                    <mxGeometry x="31" y="166.5" width="132.75" height="58" as="geometry"/>
                </mxCell>
                <mxCell id="19" value="&lt;ul style=&quot;font-size: 15px&quot;&gt;&lt;li&gt;DashBoard&lt;/li&gt;&lt;li&gt;Ingresar Gastos&lt;/li&gt;&lt;li&gt;Ingresar Ingresos&lt;/li&gt;&lt;li&gt;ForeCast&lt;/li&gt;&lt;li&gt;Budget de Gastos&lt;/li&gt;&lt;li&gt;Budget de Ingresos&lt;/li&gt;&lt;/ul&gt;" style="text;strokeColor=none;fillColor=none;html=1;whiteSpace=wrap;verticalAlign=middle;overflow=hidden;dashed=1;" vertex="1" parent="1">
                    <mxGeometry x="430" y="226" width="183" height="148" as="geometry"/>
                </mxCell>
                <mxCell id="53" style="edgeStyle=orthogonalEdgeStyle;rounded=0;orthogonalLoop=1;jettySize=auto;html=1;entryX=0.5;entryY=0;entryDx=0;entryDy=0;" edge="1" parent="1" source="20" target="46">
                    <mxGeometry relative="1" as="geometry"/>
                </mxCell>
                <mxCell id="54" style="edgeStyle=orthogonalEdgeStyle;rounded=0;orthogonalLoop=1;jettySize=auto;html=1;entryX=0.5;entryY=0;entryDx=0;entryDy=0;" edge="1" parent="1" source="20" target="16">
                    <mxGeometry relative="1" as="geometry"/>
                </mxCell>
                <mxCell id="20" value="&lt;font style=&quot;font-size: 32px&quot;&gt;ScreenManager&lt;/font&gt;" style="text;strokeColor=none;fillColor=none;html=1;fontSize=24;fontStyle=1;verticalAlign=middle;align=center;dashed=1;" vertex="1" parent="1">
                    <mxGeometry x="264" y="28" width="189" height="42" as="geometry"/>
                </mxCell>
                <mxCell id="25" value="Screens" style="text;strokeColor=none;fillColor=none;html=1;fontSize=24;fontStyle=1;verticalAlign=middle;align=center;dashed=1;" vertex="1" parent="1">
                    <mxGeometry x="471.5" y="180" width="100" height="40" as="geometry"/>
                </mxCell>
                <mxCell id="30" value="" style="rounded=0;whiteSpace=wrap;html=1;strokeColor=#000000;fillColor=#ffffff;" vertex="1" parent="1">
                    <mxGeometry x="62" y="305.25" width="232" height="70" as="geometry"/>
                </mxCell>
                <mxCell id="31" value="&lt;font color=&quot;#000000&quot;&gt;Budget Monthly&lt;/font&gt;" style="text;strokeColor=none;fillColor=none;html=1;fontSize=24;fontStyle=1;verticalAlign=middle;align=center;" vertex="1" parent="1">
                    <mxGeometry x="71" y="305.25" width="209" height="37" as="geometry"/>
                </mxCell>
                <mxCell id="32" value="" style="rounded=0;whiteSpace=wrap;html=1;strokeColor=#82b366;fillColor=#d5e8d4;gradientColor=#97d077;" vertex="1" parent="1">
                    <mxGeometry x="79" y="342.25" width="140" height="17" as="geometry"/>
                </mxCell>
                <mxCell id="33" value="" style="rounded=0;whiteSpace=wrap;html=1;strokeColor=#b85450;fillColor=#f8cecc;gradientColor=#ea6b66;" vertex="1" parent="1">
                    <mxGeometry x="219" y="342.25" width="50" height="17" as="geometry"/>
                </mxCell>
                <mxCell id="34" value="" style="rounded=0;whiteSpace=wrap;html=1;strokeColor=#000000;fillColor=#ffffff;" vertex="1" parent="1">
                    <mxGeometry x="62" y="396.25" width="233" height="160" as="geometry"/>
                </mxCell>
                <mxCell id="35" value="&lt;font color=&quot;#000000&quot;&gt;Spending&lt;/font&gt;" style="text;strokeColor=none;fillColor=none;html=1;fontSize=24;fontStyle=1;verticalAlign=middle;align=center;" vertex="1" parent="1">
                    <mxGeometry x="74" y="396.25" width="209" height="37" as="geometry"/>
                </mxCell>
                <mxCell id="36" value="&lt;ul&gt;&lt;li&gt;&lt;font color=&quot;#000000&quot;&gt;Home&lt;/font&gt;&lt;/li&gt;&lt;li&gt;&lt;font color=&quot;#000000&quot;&gt;Restaurant&lt;/font&gt;&lt;/li&gt;&lt;li&gt;&lt;font color=&quot;#000000&quot;&gt;Transport&lt;/font&gt;&lt;/li&gt;&lt;li&gt;&lt;font color=&quot;#000000&quot;&gt;Others&lt;/font&gt;&lt;/li&gt;&lt;/ul&gt;" style="text;strokeColor=none;fillColor=none;html=1;whiteSpace=wrap;verticalAlign=middle;overflow=hidden;" vertex="1" parent="1">
                    <mxGeometry x="173" y="436.25" width="100" height="80" as="geometry"/>
                </mxCell>
                <mxCell id="43" value="" style="shape=image;verticalLabelPosition=bottom;verticalAlign=top;imageAspect=0;aspect=fixed;image=data:image/png,iVBORw0KGgoAAAANSUhEUgAAAG8AAABvCAYAAADixZ5gAAAAAXNSR0IArs4c6QAAAARnQU1BAACxjwv8YQUAAAAJcEhZcwAADsMAAA7DAcdvqGQAACG4SURBVHhe7X0JlB1Xeeb/tl7UarUkS0LyIlleYrCNDAEcmwEMGAIojocDhyEQG+zDeGx8BuIhJzhAMow5hCRzPA4MCSdhmQCOgx0242MGAcYQEjtmsy3HFpY3WbZkydpa3ert9dvm+/57//tu1avXet3qVqvn6LP++tequvf+dW/dW1WvnWsAchwLEnnPj2MB4njyFjCOJ28B43jyFjCOJ28B43jyFjCOJ28B43jyFjCOJ28BY8E/YYkLn65IznNDWl/oWNDJq0hdDjYqckhqMipVmWjUsW1oEvNIVQnUmyvIYimCCjKQK2L7/08KF0TyJpGkkUZVBpGu++uD8khjWDaDHquPygGka6xRQ0QdSSOhOqxRjunjXaEoxUZR+pG4VbluOTfXJxvy/fKS/BL5jdwiGYC/DwleiEk9JpPHFIyjN21Dcu5u7JUf1nbJk/URGZKyDCMhFcTUQCx4XRvdGt7kSG843f5jSgvY9oAvAS3P9ciLkcw3Fk6Qi/NLoZekC/6FMBk4ZpJXQyrK2D6BhH2/vlvurj8vDzUOyiCGxUn1szldAhLJmUpvWApiu/dFcgHUjeOfjES+LD8gby4sk1ehZ56Y69JE2h7HGuY9eXbfehCJurX2tNyJXsbhseKTFTdyMnFxYozH/QW673XJfWKd3JKTc6Mt/usGX4tEvquwSi4pLJcz8z16z4yPfixgXpLHE1pPu6e2X66vPoD716CM497T0H6QbmCXtix7U4+atqMe56j9BQEPmqYP4lsKK+WG4smyNs+eyGHX4ucXRz15dZyNve179V3ymdojcm99SIfFZq8gkrzZwEZEzFOkPY5I2ZUIJ2cfN5nAhrcPwH4JhtMPF9fIi/LdmObE+8wPjmrymLinnq/Kp0a2yi2nPCCVRhcax5JmDRFz17xpW1u9bY/z/khvf0G0I2zRVMuRuC9W98qlPediIrtK7fMFq+2cY2S8IXfcOyl/+NkJ2fW1EyVf7o0SZzDZN1bYpolI6+nEEcYJs8eJixFfRDERTq5jJrp+coecv+MDItveJjJ6Hy4Yzn3nB3OePPbrXfvr8tEvjcnnv1vG1K4h3aPdsu6+03DlVhGR1VDcZtljihLPHqfjR5Y/KSePS3t0nISvlXox+/zTA1+WFVhzSvWAyPZ3o3I34AZ+CP466OiCJZ8TMGkV1PHuBypy/RfG5KlddSliLtJAHaulqqz/t/XSvw8rrdDoTd7aM7J0j7b3N0PTnzxuOiaLCM/R6147/qC8cuJh3O/YbCw45qWDtyGJ7xOZ2ArT0e2Fc3LP471totyQb98zKV/9YVl6unDj51lAdrJ8LS87NuySB9+2GfFxzyCs4ezaihsysnU4MSE1E2dEpG1ZRORkJeaYP3nmSjkTvayQQxm0IvBrvZC03CKRU24UWfxqFLGHzjmHtcSsgYnj/e3Gb4zLV3+AxJVaE8dK1zB8nvzASbJkd7/vfdZUrQ3X5CYTWfa031Gyxxma/iSlgb3zvfL2Qz+UdVmJU5QwdCKB264WOfBPaIQJb59bzGrymKT9ww35y1vH5d6Hq67HqSOZuJDMfEM2fOs8KVXTPYPIkj3pPS5l06qkbenjMiY7rklxjFvAn1rZJ39y4Gbp4RpUKwKrr0OgHCPR43Z+SuT5v4bNLYDmEizlrIGJu+nr4/LLrVXpZo+jERvlHjZIk9UKNVmyq19WPrba1T0gVigbAWGoJGKf2Zt66wVhiO0xxXC2IobD63BfW1kbgsZSw56oUMS1Ekjw7r8Tee7TsM1tAmcteYOHGvLJfxiTh56qte9x2iAxYMPw+aLvnSW9w3wo5Rosm4gsO4lI2pqJI5K+Ton97uzqTrls+LsYLnkfgz1OVpAZT+4ph7rs/hxmoqA5nMTMSvJGJxryFxgqn8SMsmAjCzZWN1bahkrC/KQ6bng9B7vllJ+fgguX023fEFo0G74IyG0X4Ul7ssfZMTqhZOxi0E17PiMD9kDMl9/KrkgnzpDvR/L+Bkn8AiqJJdIcwGo9IzAhk1gOfOl7ZXl4W6059MHerIfvhR5ZcrWrLif/HJMXDKGulexABGQ2UNiRPqMYztba4wxmT5PBZGcvoWleP36/vGJ8C7SiO39MRFbirKxsHKwL5Tn0voN3I4GzP4QeUfKqNdGnJnf+26Su4RQos9WDaNfjvCn4SxMlOf1HZ/gCuQacLiV7HIlI22IisuS8rKmPyyf2/q30qT1CKLjfx5dfEduUQ2cFn7oew9NDkPlQYvYw4+TVkLhn9tTkK98vS2/34e9xTXtTTtgw81zxxHIZeGYJdqWHFfcUGtWISNpae9zMqYR12juGfyBnVnZDT/U6oqPEkWhDE9fRWExgZa93zA5mlDxeTHuH6vLxL4/pQyEtDjbNYrW/x3lTi19FHOy8r50rxQoqbYEK16hNsmI73SWOtjRP29IUxzji9oXl7XLt0J3SpZMUDy0PvFmJ070A09UX23CO8Wdxtd80q8MnSz5tTFQa8rUfT8reYUyMeQQUMNQDFWnKsb0pZ/ohsL7dh7rlxF+dhAueHjZATETM4x5n8Wkk45tIy/4SyC+WDx24VU6popfwkEZEzIOMvdIxWQnmU5f9P8BVf4c3HDmmnTw+QblvS1U2/WJSujGisHBWPkLl2EBEMbE/hEX+WqEup9+1HknEzT56bOYQ8zhxhFUl3icmYiqdbw265bcmHpM3j96LpQHOHyPRkwwpG3ksByCOOofP7Tfi6t/hzEeIaSdvZKwh/3j3pD72Ippl5FDpCwmQqYiNxZgesaRf98c9Z6wgpyGBOSzim0gmJTtxpjfjkkS02u1oAyjJ3+z+c1nO8ZuFCkSvyUawmUyYjUcKMaBYZzmroyJPI4GNuG4zw7SSx9nlLT8qy859db1naXkUyaEyIIpR7pUgg7zJ3QM9asW6rPnVKlm8u09ydUsa4RonO3EWlyYiy+7IjtVAr3v78E/kjMoujNiwhYLRT+6JiG3G0zZDvB+Rw7R8/11YPvwMCmcMM8e0krfnYF3uur+i97lmeVonJypi401Bj5jyINsVS1k3OclX8nLWd07n6z/A/HHiSFZ8ysY7JzsWt2vqo/KRfV8SfuDQLBg95J6IwyUuEGxKdFAnmY5zPIP1X40PsC1g+ug4eTVcJF//6aS+o4sRnzrIEExW7pXYnwWLJa+j9y17eimWDgN+8R8njoh5FhFZsiN3LCKHi3GRXHvg27Kuug8Xi+8N6YQQsc142qbIiEsAhsF/Bd0DcebDZ0fJY8/avrsmm37GT4cMrfc43YC8qWlrMj1WU/bHoOw3cVwtV5OzvonJywg/XGecEYsd86bdpYX/xb5kHP8zex4nOmNyp1xz8BuaRLXHCQkFop3cqU5OxakvigvkjxnbCovR+/72iJYOnSUPtOkXfOHoqswtbYYsWblXgmxOwJJGmD9yKzjZ7N3bIy+4fyVKapeN7efKoITewk/de8GXQj8B2hJQCXqdPvVzPyPCyT25otyw74uyvD4hOcS1TVyMhM9zBeJiH5HwA0EviRx6DDPAR2Frdonp4LBv0unlq5733TiiywQWMN5DRa+bOdNmAnC4xFms+ardNXng2kdl9IQKCpyHqa6fIpyM6fxL8v1yEegc9Jp1WFT3wl7A4avYbwhD0uONsvx7fVzuwj1ta2NC9mlDsYei1yFxr8LS4I5nPiiLuSC3QpAH2SdEZeO+/Ok45Y45X5aNgj9mHR1i2QUi53wat8F+OqaFwyaPM8w775uUz94+oY/B4qsw7AjBZOVeyfSn9498RDpx5LlaTva89IA8+nvbpatal/MLy+S64olyIZLWl8uH3xa4QbMJ7ss+x9t0GUk7KDW5vXZI/gr3tt2NqvbSTds/IOdVnkND+Iez3ElPTu6PFnRShs2Scbg4lSM7K1vDsHn+d0QWnwmD93WIwyavXGnI9V8Ylyefc8sDg4peN3OWPzIlE+cdSb/nfmM+2iuYdi67Dvem1SvlgtwSWep/2TO96vIXRw1N3HfQG4f33SJ/uPsvMXT6x888YTgpjmwyob644Z3YcYJVjo5pvDoucvqHRNZeiasv9WDgMJjynsdhcu9QQ7btSo7Jdl4iXRYilg0tPS7iRLvEEYV8Tq54bbf849IzZWN+mazAcMcvlptH7Bz8XH1triTXYMLw4YE3SveSN6GiGF5YWTtpVFYF7cHnSdEuSRk8TpyBer5X5PlNSOKIs00DUyaPbw5+dH9VX7amG5fkTc7nldjWlFOJi3xE28RRAH3yym654rdLsmQRh8eZpKwVfF9X6jldcmtvEnnBVbDwAvUN3EI8Z+QjaEvEeFucpNieZdO6gEYex+Tl15CnhymTN1ZuyD2PVN3DZ0DP7wsRl8UQ5Mg408TV0ZY5LPA+9we9cv4LC1Lic9RZB8pWwJC5+g9ETrweVz8/nk01iZWfBbPCxTZD2hbim/Vvvz/04c3QpzfrnDJ5w2MNrO/4saxfGviThTJQiG3YJHucFwCLjX3mVxb5CA6Vn762R846GbPHKUs5C8AwLKuuEDn5Y7hqyq4gSlEjW+HStoQv4ioj1uTY18IRN/ggzj29TwbbNgtvATv31mUSExZ9wuFPlj43EcsG1+NcRbP2MagNm9g3jvb7o//UJWevwzA514kLQFlXvUdk4A2Qcb84XOIMKsMeYjyPbYa2sajk6FOYTR30emdo2zRcIjz0VF267EswIMG9Es4PIcgRLDb2te1xFNBAl1xQkot/szj3PS4NvnM79VNYc61BOZhAb1ekEufLGuyE2kipxJk9K3FmL+/DUPfvauoUbZunPNmQrTurWMhCwQnCuSh4RZnXvUl7nN3nzG8+YqrE8SkIe/x7f7uo97jwQdPRRAGL5ZM+iJOXUCBfQEsGiTBbkCNql8ypEkc/v7geetiMHaFt8oZGG7Jjr3uolD4nkSUfyaxSE4f79XsxqzxpxWzNKWcAvrJZhqFz8cupeAKssORRPRWhIqlYIt4v5grEx/rQI7hfdf6RUtvk8ZHYGNaPoTw8iT9ROB8Ek2ecOMB63NL+nLz91UXX2+cTfEC98u1u9smCWmFVjhKUIJ8IEhFkbycCpy1tRyrKe5C8zh9Ut03e4EhDJviAELBzEEGGYPJUidORxytpn8p+X/a63zwjL4t7mseaN/DHJIs3iHSfhIL5e5+SL5tVwOzpBCkxNmWfirPHc8Ki7/g6Q2by2NhDo3WU2x85ZtyAvCkkhjB/ZApI+zSpJoPY2y48u6BfXB8TKK0UWf4mFM5/rh4X1rjKPqFEVkwLb5dQpILPOaexXMhMHocwDpucMSR6jedBtquLst+Yj2jb4xRuX/Mtx5C54bRjJXMA135LL4KAJsrqRSq7ugc7YfY4NmAKu9HkkFo6QXbyMIQNj0HwJwjnSZywCTVjE7uzkm6Ih1k6eLGsXJaTJXwXeqyAw1jvevBUoUJFfB3iCqqcrFsA6xzHGtK2yf1eODzaDpvDmG1yqq7HxCYxzKEgloDgV82hpceZU2W/n7fTNYl769qVOSnxRdyxBK77iktcIRPkGyZtY+JiG2G+WDeucuyDUD7glcOjTfIa+gMSO2aMuNeoH5s4zhJltuDTOLdvHE/wAfhAX+4oPk3pEBw6+dTfFd4XvE0i2vKM+IDIR1CucYrfGbKTB2JvUBnMjj+txNEXOROJoy+SOUyXMErNy6J8SqB5OHxqQVMwW+BeyLTH1GQJO+P4G43ZWCpoO/K4HkfU4/y+agsOgD4yuKf3PP1oAaXjtzOB0jqI3ybyd4X05TCE5Enep/aUHPNMW+evTzLfpPPt+SdvLss9W6r6mCqROB9tO8V7q4hNMKnsE+eN5ov346unyy4uyQfe2tX8qdixgDGsu277sMgIJxGoh1aF3NojLXvuhPY+Mtaf6yNrB8byvvHKy0Re9DpvnBqZPY/H7ul2x23pcRGPoTZsgk/l5r4JRAegyNc/fGPPb0OPKfDp/EGUcBQTl1E0iPKIxozjvjgOMk6aMI7ZaiyXjXs7ebmvyfl+sUNkJw+N2Y8JxLTvcao5xD1OSW2tMgX27qf3NKTi77PHBlCWShkNPOzkQLzCOLx5nUOd2WJ/i+x1feEa20B6DC/3YnbbITKTx968pDe1QMfGq4q2PsrxPS5GbPCymfYO1mXXgZY95g+cRe14DL2PT1hYLiMC3K48NWXoTmjaFcYJyFn7LOr8E8C2yVsxkMex3R/bDsf30HOS+03wqdzsceZQpj4H4wbGDo/l5FePJ79Qm1dUMOt7/BcQWPCIQkUOo5tMZMWpTJVCpHdjKO0Q2cMm2p/rrmIRQnRcQs9F7jcJX8Y9zvwJ7vczGWfkRn76UK3ltxDzhoN7RB79GVqIMygtpENWIoJO0esmhwbzdlVNVsWBL3+LuH8WSt5weGQmj1jWn5NuJM8OnyiH35jPlcP3OJL3BZmC1zVWNe/zieMFs2V7XZ4/yPF/nsE3Cds2Y7HLh8QomFVCKxJzBlNM243U6YnMy8HuOe0cphctRgI7/3azbfJW4L65BBMfO4XBzhvsKjcT13QAkZwoN0UV/H6QKY2irf737dX5n3WODok8eJdIF3qCFpqF9UQW21p4ht9IXWb3sjdr8vqXo+d1vs5rm7z+RTlZvxr3PRzTzqHnic7n5GTiyGPZi0muguvVoU4gLnO+/8uqPPjkPN772Ig//67I7qdd4bQc5DE5U9LmSWOjfbyY1Mkj2fQ1p/thujO0TV4Xhsxz1xd0qRPA83iRyEqcwWQrV0L3iTOj+Qi+jP2ft1WkjEmeiz3KOLBL5N5v+0ZkAUBaDnLTPQ9kiHxqbqdT9HaTS1hHrlrn9A7RNnl80nHOurz+5QcFmJecHC8HWnxBTHIV3H5mTPowM8eFv3VHTT79rcm2D8fnDEP7RP7h4+6exzOzUFow4xQjXU1eVu79sZ7260aFyI5K9y1F8tY6e4domzxOIF6wDIt1DJ986u9P587VrsdFcqK8FFVoHSqVxzo2/IuBt/1zTW79cVUm5ubPdiXBAvA+d+fnRAb5h3O8jYUhDwWMbMGnjqbNKMSAJfSIYjsTp/fYztE2ecQSJO6ctXmp2OcQgCVO0TQrUmoK0X6AxWrZDV7my1l+s/lX36zIpl/W9I+vJuJmE7zHjRx0iXv4X2BAOe1kykwmB3k16C02cr8JMR4tftVEZ2gnnjmtZQIxZfL4pxdf/9KiNibP29FywMtqD3rU46iDKVfB6bHsNpx45eRjf1+Rz//fqoyXG9rOswecpIZxeRSJu/m/izzwI9x3OE3X0uBfxMOszWwsiPkiSuxH5vVMf8R5pa45zQ1308CUyePHQBdtKMpSLNj5ow8inFM1r3uYnPT5AqV9MY992JBrD4fQg/b80g/q8sd/dkh2PjmpCYzPORNw/3q1Ko1H0NP++v0iz27xifPOmNTmNwkbuemeU4xtqka6mkx3on6nyV63fI2zTQNTJo/Nvgizv3NPQ+9jozlzk5sAtPORJXzYxD5zBp9q0RUIcTF6yPZNB+S6339Obv7soOx6pjLjXljFBOzXm8vylU9slf1fvsn1PB2ueHIrDLknk2Oejkv41NO0KbxPeUqfxE393Ffh4pne/Y447C9jORz/80M1+aPPT0hf6ptK21MZNvGBwhAbx5DHekp2anMZQV7P52T1E4PSv39cGoWcfo7IxL1242J509v65cR1Jenty6PjcHTgjkkwdrJcl7FDSNpDE7Lpnw7Jls0TUuztlktPuUN+79RbpdDgX9kF9AAgOxC/31TR28IJYj2yx3qLTRWnm4+NwScqV/yZyLLVzjYNdPQHBXi/uewvJuTAMH/KT6NrWC8mdRNQ0Pa+ppyMSe7D/Pccqsiarfv1DYzV2cCl2JJlRVl9UlHWndElK9cUpHdRXof7CtaJI8M12b2jIs8+VZUDe3DfHGPpkWQ/3iwqTsgNL/2IrCkNw8x1HRAa25Pa/A7Bp4rT43g1t7Fl6Rwyz7tY5OLL0PP8BTQNHDZ5BCcst/2kgrVXBYt3bwQSCSBXwRUw29fkhIrYOBMSZzGOKT/p4X3SPYZKxu3nOeNtH70n8x+y7EMC2PZ5+LUj0UkZrC4FOW/ZZrnunBulu4GhU3fUg0ScYqR3ags+dbTqLAyvsiv/XGTpKqdPEx3twfO97ryiLh0McQMrVHD+tC9OmEFN2DiX73GA8Toq2rd/QrpGMbHAYUNiI8624CM1tgF7ISdteQyzShhiSZyxkme1DVawsnlwgzwxfAYUPtLxDj0JKFFwL4cC+A31LFvw0UaYjQybyoTIunPd88wZJI7oLHlopNXLc3LVRrcO0fL4cqiosk8cjSmf8pTcjMkeXvPVuqx48mDbxKU5BxCqKntOKKctobtYlriQq8nfP3GVTNR9z08GOh5TOBi5Bjo94aMY6QkfyeOVb0UBOn8Qnca0Uv7mlxd02YBZdiiCK2uUOHLHgq6Ifdg4tTVxFDhJGdg5IjnOlvxBwrE8T59LBRqVnKklNubY8L86ro5tI6fKT/a8BuflT5rhdAEpTqRt5JHd4hLck5rISajXiy8SecGpaIKZ9TpiWnvyu5bL31h0QzoQyuiJCNx84Ik46irble50wnxd41Xpf25Uh063v4sI++omyVXkRrl7IpO0NXmwq60hi/Jj8u2n3ymHqj3QGOCD1O0D1ebtJCL2xTEqc3IU2ZT8PmxA9roj/Mp4WnszZ5dcUJRXnJXX553OAtJCOUZo+VNQU7D7fYD0PnXcuJY9NST51EIuzKva7BfsphPtfLEO4v/xeXByQL6FBFbSjU5YYOAcEaI4QpnX2+4HYsO99l1+Uc72mzmmnXo+MrtqY5d+IqHl9PbATQBMVoaNU/1QGSOK6xoqS+/ghPa6sI/tgAMmdc+MO+ZjmrHGlaW5bhpSylfkx8+/Tg5Ul+js2nlALTt4TpioNpDq3hjiHVOdbytWnSyy4XVohiPrdcS0j8CPk/jnNf7rfyzJhP+wKi6fIVH2EJMcKpUiOYcF+Iqtg82YTO6SQtk4kYwxzlgq+i8Za5w+7yxXu+QLW68VDNjOGBPRMhSme2BsT9mInj6Rjdc4PguYUfq7MOnk5OVlZ/KNg7NZ+QgTlbPsqrXvcQ45WbR3XEpY0zV8r4thqnI7WcLYxoyNcYXnITbiRfS+B7F0+PXBc6SWw6zMeRwldoh0wsQQ4zfUlZBMPgb7rd91b8tt0nCEmHHfXYLJy01Xd+mPIu32xDKHunmD8il6HEG5UK7K0m3DOtO0OOUhyMued7Q0CHyKWM9VxKY3Py7fePpdMlZdhGGOjhRpHHlsz+qBGuh0fhnG55fnbzyipUEaM04e27ivNyefeE9Jn3/qxaQFjsqt2tQ9jnXjJGXxjhHJT7purG5sLMzaSGXHHNJGU7PMagQljN6sgmNcOjx1aL38cPfrUS7/Jlh93IDCwVM6oaLZPOd9rn+FyBuvEOnGBTGLOKK7Jp9o8O+CfezdXTI24crKYmu5NWKKexw5CUnvGi5L3+4x7XU6q/Qxyimo0pTDvqp33gMdIZ7cYlKcIicvm3ZulH2T/dA4fNKRIkJ5bGcPjGycWfIj2stvEBlYqbvMJo4oeQSXKpdeWJBrLy3p9ydae8Xh7nEOvL8tfWIIFY2dkN0/05pKCs7nnYkdWs2JY7SJpY4bgQxXFsvXt10uVf5sKzgJyNTDwclTuoq4KjkcvfMjblkwS/e5GEecPIIfK70Xi/fL31DEjA0jxVQ9LpLrhZz07BuX7iH3g8Kwj/pdUOI4Xo/jjHdyDzS7i526B/KPId+z50LZhiFUf3enwZ64V5D9DgkbaHJM5Pf/VOTUF+Ng/o3FLGNWkkf0dotc/TtF/dNTLV99xYqXeR3mqg1Z9thBTswDQqgKTovEgES7qUAyo2PGEzHGVcbG29LHI2808vKVJ6+UCQ6dtCeCNKDVRrCXXfY/RM542Zwljpi15BF8Wfv+3ynJ1Rv55r2hI6HWz/tDPUF11K/vWUxSJvwkJQQl4+wATnaqU5owVV0IUB0bp1Npw0Gqeptxi6Hh4aFz5L69F+J+zNGBO8RBXleCymk313Dv/KjICy+Y08QRs5o8YlGPyH9+S1E+fnmXPsC2oT7UGaS/4i3XpR9Lg3hNZzFEaBunRbLn1CODxTtqJlDhucUnuI+lbJwwvrgwgqXDu6VcK3obAy3IbzhRYT05m2SPO+v8OU8cMevJI/jR0O9eUJAvfqhLH6fZV9dW11opJwOPD0k+/vNYTgztQpidXJuY/5yiNtPjtgwEo+OmY9OOaxDJ2YzTVGsUZOfYGrl9x1sxeNrkhbHGwfgjTH5E9P7PiKw9+6gkjujoTfpMwSNv39OQj39lUn72aF26+H/+wr/CWFVW3bcnXDrWO5WZ7Dl1E1X2Dt2qrqoiHCfm2Kia5Yt481iIT/vU2ZDPXnClrMhXoSE5dGp2Mby85p0ib/kvWGPwfWfYac4xJz3PwPqtW5WTz32wS665hP9LGdS1jEnKFv6hGH/VEp4rMznymagCHWYjVxuVJkxVFwIcV1Nb7oK8ENsU/L18Ub76+LUyoW+HMUzyF7McJq/6XyIbr8aU++gmjpjT5BFMID8fvOaSotzy0W552dJJqe6c8O3iGopyaMywado0JvKHIdQb1EbuSW2eB2eTZXKKymPZc6KQq2Lp8B/kyeHfkDp72/mXiPy3/yNyJmaUTFyzmx41zOmwmQYfow0fqMlPN43IrX83KDu3V6SnJ496o+K+7nEbmJxlY7wOiO5fgisjj2XlTmjqh+MQ3D+pYepcreXk0ot2ynveV5fC6Ugav7W04HnAUU2eoYqJyvM7qnL7zUPy4ztHZHiQMxp/r2Fj+fZQZrLn6jfRAszmHWH/FNc4r7SLCbGAyhgmOf9Yc0pJ3vyOfnnlGxZJXz//cHkUOE+Yl+QZuCw6uL8q3/zykNx5y7AMH6xLN/8KBWfebBuQNpFvp5aGDRwb9y/JVfCyF53dacljOM7W4CM/8upkXdas7ZJ3vX+ZvOI1vdKNUeIIv1yYVcxr8gwswd5dVbn/3nG5A0nc8sC4Xtnd/gtt+lXCJiQEUNnrNoSq3IaHEHJvNJ2fD/JiKo/Xsc7Oyyte3StveceAnHF2lyxafAxlLMIxkbwYvLc8sWVSfvHTMbn3rlF5+rGKfvnMK76EpUYBFF/9ycTohv8SXFnESUxUDcM3HyRwWBxYVpCzX9ojF7y+T847v0dWrml+aHWs4phLHsGGtd8k8DP1X6FHbv75hDz6YFn27arI+HhDG5y3HSbSEsK/3GQ9SqEiquf+uZkjZdDA8rx+Jr/h/F554Ut65MUv79FP5fW4ehzue2zjmExeDN7/anX0ECyrJifqUsY6kROcZ7dV9NdCu3dWcd+syTBoZKQuk/Aza/zFVnd3TvqW5GXZCUVZekJBVp9clFPWl+TEU0vS05vXYZk/UOGQyS+rFxqO+eRlgSXmg2++pLZeyhksl1/65RfIeiSTUvRDrSP0Ku9b6FiQyTsOB1yDx7FQcTx5CxjHk7dgIfL/AJux34MUVb2xAAAAAElFTkSuQmCC" vertex="1" parent="1">
                    <mxGeometry x="84" y="440.25" width="89" height="89" as="geometry"/>
                </mxCell>
                <mxCell id="44" value="&lt;font color=&quot;#009900&quot;&gt;Charts Examples&lt;/font&gt;" style="text;strokeColor=none;fillColor=none;html=1;fontSize=24;fontStyle=1;verticalAlign=middle;align=center;" vertex="1" parent="1">
                    <mxGeometry x="53" y="253.25" width="240" height="36" as="geometry"/>
                </mxCell>
                <mxCell id="45" value="" style="rounded=0;whiteSpace=wrap;html=1;dashed=1;fillColor=none;strokeColor=#009900;" vertex="1" parent="1">
                    <mxGeometry x="31" y="242" width="287" height="333" as="geometry"/>
                </mxCell>
                <mxCell id="46" value="" style="rounded=0;whiteSpace=wrap;html=1;dashed=1;fillColor=none;" vertex="1" parent="1">
                    <mxGeometry x="436" y="166.5" width="184" height="209" as="geometry"/>
                </mxCell>
            </root>
        </mxGraphModel>
    </diagram>
</mxfile>